{"title":"Pure MiLF 7 XXX **[NEW]** 01 September 2014 ","uid":10945081,"size":1316896881,"categoryP":"porn","categoryS":"movies","magnet":"?xt=urn:btih:198c949bd8da3590aa38863d52cf1e516eb22e93&amp;dn=Pure+MiLF+7+XXX+%2A%2A%5BNEW%5D%2A%2A+01+September+2014+&amp;tr=udp%3A%2F%2Ftracker.openbittorrent.com%3A80&amp;tr=udp%3A%2F%2Fopen.demonii.com%3A1337&amp;tr=udp%3A%2F%2Ftracker.coppersurfer.tk%3A6969&amp;tr=udp%3A%2F%2Fexodus.desync.com%3A6969","seeders":1,"leechers":0,"uploader":"iH2OSO4","files":-1,"time":1409591928,"description":"Pure MiLF 7 XXX **[NEW]** 01 September 2014 \n\nGet ready for 5 gorgeous MILFs and plenty of eye-catching passionate sex! Ava Addams, Alison Star, Janet Mason, Kendra Lust, and Kiera King have been flawlessly captured in high definition for your viewing pleasure. Prepare to be captivated by these pure MILFs as they do whatever it takes to seduce you!\n\nSOURCE :  &lt;a href=&quot; http://nuscotower.com/i/mi7_fgn.html&quot; rel=&quot;nofollow&quot; target=&quot;_NEW&quot;&gt; http://nuscotower.com/i/mi7_fgn.html&lt;/a&gt;\n\n\nGeneral\nPure.Milf.7.XXX.2014.DVDRiP-eUDOXiU.mp4\nFormat                           : MPEG-4\nFormat profile                   : Base Media\nCodec ID                         : isom\nFile size                        : 1.23 GiB\nDuration                         : 1h 45mn\nOverall bit rate                 : 1 664 Kbps\nEncoded date                     : UTC 2014-09-01 03:06:34\nTagged date                      : UTC 2014-09-01 03:06:34\n\nVideo\nID                               : 1\nFormat                           : MPEG-4 Visual\nFormat profile                   : Simple@L1\nFormat settings, BVOP            : No\nFormat settings, QPel            : No\nFormat settings, GMC             : No warppoints\nFormat settings, Matrix          : Default (H.263)\nCodec ID                         : 20\nDuration                         : 1h 45mn\nBit rate mode                    : Variable\nBit rate                         : 1 536 Kbps\nMaximum bit rate                 : 4 762 Kbps\nWidth                            : 856 pixels\nHeight                           : 480 pixels\nDisplay aspect ratio             : 16:9\nFrame rate mode                  : Constant\nFrame rate                       : 23.963 fps\nColor space                      : YUV\nChroma subsampling               : 4:2:0\nBit depth                        : 8 bits\nScan type                        : Progressive\nCompression mode                 : Lossy\nBits/(Pixel*Frame)               : 0.156\nStream size                      : 1.13 GiB (92%)\nWriting library                  : Lavc53.8.0\nEncoded date                     : UTC 2014-09-01 03:06:34\nTagged date                      : UTC 2014-09-01 03:07:55\n\nAudio\nID                               : 2\nFormat                           : AAC\nFormat/Info                      : Advanced Audio Codec\nFormat profile                   : LC\nCodec ID                         : 40\nDuration                         : 1h 45mn\nBit rate mode                    : Variable\nBit rate                         : 126 Kbps\nMaximum bit rate                 : 240 Kbps\nChannel(s)                       : 2 channels\nChannel positions                : Front: L R\nSampling rate                    : 44.1 KHz\nCompression mode                 : Lossy\nStream size                      : 94.7 MiB (8%)\nEncoded date                     : UTC 2014-09-01 03:07:29\nTagged date                      : UTC 2014-09-01 03:07:55\n\n","torrent":{"xt":"urn:btih:198c949bd8da3590aa38863d52cf1e516eb22e93","amp;dn":"Pure+MiLF+7+XXX+%2A%2A%5BNEW%5D%2A%2A+01+September+2014+","amp;tr":["udp%3A%2F%2Ftracker.openbittorrent.com%3A80","udp%3A%2F%2Fopen.demonii.com%3A1337","udp%3A%2F%2Ftracker.coppersurfer.tk%3A6969","udp%3A%2F%2Fexodus.desync.com%3A6969"],"infoHash":"198c949bd8da3590aa38863d52cf1e516eb22e93","infoHashBuffer":{"type":"Buffer","data":[25,140,148,155,216,218,53,144,170,56,134,61,82,207,30,81,110,178,46,147]},"announce":[],"urlList":[]}}